<?xml version="1.0" standalone="no"?>
<!DOCTYPE svg PUBLIC "-//W3C//DTD SVG 20010904//EN"
 "http://www.w3.org/TR/2001/REC-SVG-20010904/DTD/svg10.dtd">
<svg version="1.0" xmlns="http://www.w3.org/2000/svg"
 width="3969.000000pt" height="3840.000000pt" viewBox="0 0 3969.000000 3840.000000"
 preserveAspectRatio="xMidYMid meet">

<g transform="translate(0.000000,3840.000000) scale(0.100000,-0.100000)"
fill="#000000" stroke="none">
<path d="M6030 36360 l0 -780 390 0 390 0 0 -1945 0 -1945 975 0 975 0 0 1945
0 1945 390 0 390 0 0 780 0 780 -1755 0 -1755 0 0 -780z"/>
<path d="M9920 34415 l0 -2725 975 0 975 0 0 2725 0 2725 -975 0 -975 0 0
-2725z"/>
<path d="M12650 36165 l0 -975 -195 0 -195 0 0 -775 0 -775 195 0 195 0 0
-975 0 -975 1950 0 1950 0 -2 778 -3 777 -972 3 -973 2 0 195 0 195 975 0 975
0 0 775 0 775 -975 0 -975 0 0 195 0 195 975 0 975 0 0 780 0 780 -1950 0
-1950 0 0 -975z"/>
<path d="M16930 34415 l0 -2725 975 0 975 0 0 1166 c0 1063 1 1166 16 1160 44
-17 172 -117 239 -187 325 -340 490 -950 521 -1926 l7 -213 969 0 968 0 0
2725 0 2725 -970 0 -970 0 -2 -577 -3 -578 -71 135 c-206 389 -401 683 -614
925 l-84 95 -978 0 -978 0 0 -2725z"/>
<path d="M21980 34414 l0 -2725 1158 4 c1256 4 1247 4 1572 63 787 143 1333
525 1643 1149 140 280 225 586 274 975 25 203 26 871 1 1065 -87 673 -294
1151 -653 1510 -362 362 -854 576 -1510 654 -209 26 -464 31 -1447 31 l-1038
0 0 -2726z m2225 746 c170 -43 302 -134 387 -264 105 -163 145 -468 93 -721
-67 -327 -294 -512 -652 -532 l-103 -6 0 778 0 778 98 -6 c53 -3 133 -15 177
-27z"/>
<path d="M28452 37073 c-280 -481 -696 -1329 -947 -1933 -450 -1080 -779
-2240 -943 -3327 l-19 -123 1072 0 1072 0 6 348 c4 191 10 366 13 390 l7 42
557 0 557 0 7 -37 c3 -21 9 -197 13 -390 l6 -353 1069 0 c1033 0 1068 1 1068
19 0 33 -79 496 -120 702 -301 1514 -895 3080 -1742 4587 l-80 142 -778 0
-779 0 -39 -67z m837 -2305 c28 -45 130 -255 165 -339 41 -100 136 -375 136
-395 0 -12 -55 -14 -314 -14 -173 0 -317 3 -320 8 -6 10 82 274 137 408 53
130 164 354 175 354 4 0 13 -10 21 -22z"/>
<path d="M34040 37129 c-743 -53 -1241 -333 -1486 -834 -29 -60 -67 -152 -84
-204 -112 -347 -125 -907 -30 -1283 132 -515 453 -865 952 -1036 272 -94 457
-121 918 -132 241 -6 373 -14 411 -23 123 -30 179 -82 179 -166 0 -79 -52
-139 -155 -177 -48 -18 -100 -19 -1112 -22 l-1063 -3 0 -779 0 -780 905 0
c1152 0 1803 13 1970 40 415 66 727 210 961 444 314 315 461 771 441 1371 -12
348 -66 584 -187 825 -195 388 -552 642 -1060 754 -224 49 -328 58 -795 66
-463 8 -489 11 -582 58 -23 12 -51 36 -63 53 -24 33 -37 102 -26 143 10 42 63
84 134 108 l67 23 1063 3 1062 3 0 779 0 780 -1152 -1 c-634 -1 -1205 -6
-1268 -10z"/>
<path d="M8619 28528 c0 -13 -2 -34 -4 -48 -2 -14 -11 -119 -20 -235 -8 -115
-18 -232 -20 -260 -2 -27 -18 -230 -35 -450 -16 -220 -32 -427 -35 -460 -6
-71 -52 -666 -60 -775 -10 -132 -15 -204 -20 -255 -3 -27 -23 -288 -45 -580
-22 -291 -42 -555 -45 -585 -3 -30 -12 -143 -20 -250 -8 -107 -17 -229 -21
-270 -109 -1394 -158 -2072 -151 -2079 4 -4 -23 -11 -62 -15 -102 -9 -309 -53
-439 -92 -419 -127 -858 -354 -1190 -617 l-83 -65 -112 53 c-783 372 -1623
470 -2397 280 -562 -138 -1008 -373 -1367 -719 -534 -514 -833 -1199 -904
-2070 -14 -177 -6 -631 14 -775 l13 -94 -75 -34 c-883 -397 -1388 -1079 -1517
-2053 -22 -162 -22 -567 0 -761 65 -577 311 -1115 731 -1599 117 -134 370
-379 500 -483 185 -148 268 -200 380 -236 211 -68 430 -192 614 -346 181 -152
393 -426 378 -489 -45 -192 -66 -313 -82 -471 -4 -33 -8 -76 -10 -95 -29 -250
-60 -848 -75 -1450 -15 -638 -19 -2453 -5 -2795 29 -695 226 -1330 578 -1863
330 -498 804 -921 1321 -1177 244 -121 417 -162 606 -142 144 14 228 54 331
156 84 85 140 181 182 316 23 72 30 104 52 235 20 110 24 371 9 526 l-5 60
-55 27 c-170 83 -393 248 -577 427 -433 418 -691 894 -818 1510 -27 130 -32
177 -32 290 0 158 12 896 18 1155 3 99 9 432 15 740 5 308 12 661 15 785 2
124 7 383 10 575 3 193 7 413 10 490 2 77 7 347 11 600 l6 460 -32 90 c-88
247 -227 474 -394 641 -95 95 -140 131 -306 240 -107 70 -390 255 -628 411
-238 156 -468 310 -510 342 -287 219 -515 516 -642 836 -40 101 -61 238 -75
505 -12 217 13 325 130 555 267 527 698 865 1215 952 74 12 107 23 149 51 82
52 155 132 196 216 83 167 53 347 -97 581 -223 346 -316 814 -238 1195 66 322
246 629 531 905 570 551 1308 688 2068 385 212 -84 526 -255 608 -331 59 -54
195 -141 271 -173 250 -105 454 -63 617 129 69 80 227 210 375 310 631 422
1266 478 1849 163 358 -193 683 -578 805 -951 82 -250 86 -551 10 -800 -80
-267 -88 -304 -88 -457 0 -178 17 -233 98 -315 76 -78 130 -95 336 -106 643
-34 1186 -274 1468 -648 64 -85 148 -242 180 -336 121 -355 130 -808 25 -1185
-87 -313 -253 -596 -464 -792 -325 -302 -622 -696 -758 -1006 -121 -274 -147
-482 -96 -753 141 -739 248 -1123 408 -1474 171 -374 376 -1054 487 -1615 141
-713 180 -1310 126 -1955 -3 -27 -2 -42 0 -32 3 9 7 17 9 17 2 0 37 -18 78
-40 169 -91 320 -124 567 -124 137 0 203 5 305 23 159 29 338 77 467 126 l97
37 11 52 c33 151 44 287 44 561 1 421 -23 687 -105 1168 -145 854 -495 2103
-888 3169 -50 135 -91 249 -91 253 0 3 46 79 103 168 652 1024 1049 1948 1163
2707 18 127 27 524 13 660 -25 248 -94 480 -213 718 l-44 88 237 73 c893 277
1763 476 2636 600 321 46 807 102 1055 121 146 12 288 23 315 26 270 28 508
71 551 99 28 18 31 45 7 74 -13 16 -40 25 -103 36 -47 8 -98 15 -115 16 -29 1
-30 1 -5 9 14 4 51 13 82 20 43 8 59 16 64 32 3 11 1 25 -4 30 -17 17 -165 56
-281 75 l-108 17 18 30 c11 17 19 39 19 48 0 19 25 24 190 34 164 9 282 30
297 50 17 23 16 49 -1 63 -25 21 -195 50 -331 58 -71 4 -121 9 -110 11 112 21
254 56 273 68 27 17 29 55 4 77 -14 13 -55 19 -181 27 -90 6 -184 8 -210 5
-25 -2 -100 -7 -166 -10 -147 -7 -148 -7 -580 -56 -950 -108 -1950 -291 -2915
-534 -283 -71 -630 -204 -697 -267 -26 -24 -29 -55 -9 -83 13 -18 9 -22 -62
-53 -90 -39 -198 -101 -242 -138 l-31 -27 -67 65 c-300 292 -697 566 -1112
768 l-155 75 -2 180 c-1 99 -8 230 -17 290 l-15 110 47 75 c388 631 957 1329
1593 1955 208 204 525 495 549 503 4 2 511 -290 1125 -648 614 -358 1119 -649
1122 -646 5 5 -12 101 -117 646 -73 376 -250 1302 -301 1570 -27 146 -52 275
-55 286 -4 17 4 27 40 48 75 44 451 229 616 304 293 131 728 299 740 285 4 -4
215 -620 470 -1368 255 -748 466 -1366 470 -1373 4 -8 27 33 57 105 28 65 299
703 603 1418 304 715 590 1388 635 1495 l83 195 44 7 c125 22 1172 18 1193 -4
5 -5 52 -173 556 -1983 187 -671 342 -1227 345 -1235 6 -17 -28 -78 546 1005
242 457 502 947 578 1090 76 143 167 314 202 380 171 324 194 365 206 365 22
0 445 -108 690 -176 314 -87 544 -158 868 -265 l271 -89 12 -113 c7 -61 15
-128 17 -147 2 -19 19 -181 39 -360 166 -1539 226 -2084 231 -2089 2 -2 6 -2
7 0 21 25 1601 1916 1606 1922 9 9 143 -53 511 -237 763 -383 1446 -780 2155
-1254 127 -85 236 -160 244 -168 13 -11 5 -22 -55 -75 -311 -278 -574 -630
-728 -975 -147 -329 -220 -659 -233 -1047 l-6 -198 -101 -48 c-188 -89 -440
-239 -633 -378 -56 -40 -106 -73 -112 -73 -5 0 -4 12 5 28 29 56 12 78 -105
137 -205 102 -434 173 -936 290 -970 224 -1740 359 -2625 459 -427 48 -548 58
-749 58 -213 1 -320 -8 -343 -30 -25 -21 -22 -59 5 -76 20 -12 121 -39 247
-65 l45 -9 -61 -1 c-155 -3 -369 -36 -401 -63 -18 -14 -16 -53 2 -68 18 -15
155 -36 290 -44 168 -11 195 -16 195 -34 0 -10 7 -30 15 -46 9 -16 14 -30 13
-31 -2 -1 -49 -10 -104 -19 -137 -23 -265 -59 -277 -78 -18 -28 0 -46 60 -58
32 -7 69 -16 83 -20 23 -8 22 -9 -10 -10 -69 -2 -192 -29 -211 -46 -24 -22
-25 -70 -1 -83 58 -31 386 -82 682 -106 265 -21 528 -45 570 -50 19 -3 91 -11
160 -19 916 -107 1807 -281 2662 -522 l207 -58 -35 -45 c-258 -339 -419 -715
-463 -1081 -16 -131 -13 -542 4 -675 93 -719 454 -1614 1058 -2620 66 -110
134 -220 150 -244 l30 -44 -28 -76 c-413 -1151 -712 -2202 -884 -3106 -147
-778 -189 -1453 -116 -1895 9 -52 18 -103 21 -112 9 -30 247 -116 444 -159
371 -81 667 -61 920 63 58 29 109 51 114 50 4 -2 5 21 2 50 -14 113 -15 859
-1 1020 58 678 196 1351 415 2023 76 233 136 396 185 500 136 293 257 731 376
1365 63 335 59 488 -21 725 -115 342 -351 689 -738 1088 -208 215 -277 307
-373 503 -143 293 -201 567 -195 929 4 219 16 318 61 495 103 404 375 711 795
896 259 114 619 194 877 194 182 0 300 70 355 209 17 43 23 84 26 177 5 140
-10 236 -64 407 -93 296 -99 581 -18 865 32 114 147 343 231 462 83 116 300
335 408 412 578 408 1257 392 1915 -47 144 -97 252 -187 390 -326 69 -70 139
-133 155 -142 68 -34 131 -48 212 -48 148 0 319 76 489 219 250 210 700 410
1059 473 152 26 409 31 540 10 184 -29 399 -100 555 -184 410 -221 772 -635
918 -1047 151 -428 85 -956 -171 -1383 -134 -224 -170 -363 -132 -510 31 -119
98 -212 209 -291 54 -40 72 -46 161 -61 509 -85 961 -465 1206 -1015 91 -204
94 -214 94 -410 0 -358 -34 -538 -142 -755 -116 -230 -306 -466 -511 -634 -80
-65 -420 -299 -1117 -768 -248 -167 -351 -259 -468 -423 -81 -114 -193 -336
-242 -480 l-36 -105 5 -175 c3 -96 8 -326 11 -510 3 -184 7 -438 10 -565 5
-244 11 -592 20 -1100 3 -170 7 -407 10 -525 3 -118 7 -372 10 -565 3 -192 7
-431 10 -530 3 -99 8 -342 11 -540 6 -339 5 -368 -16 -488 -92 -544 -301
-1006 -638 -1407 -196 -234 -500 -488 -724 -605 -34 -17 -59 -38 -62 -50 -13
-52 -17 -341 -7 -454 42 -465 195 -724 476 -807 94 -27 244 -24 380 10 145 36
361 142 564 276 459 305 836 702 1098 1160 269 468 432 1023 470 1596 17 259
7 3167 -12 3374 -2 25 -7 126 -10 225 -5 161 -12 272 -31 555 -19 287 -54 562
-90 706 l-25 101 35 60 c137 234 379 470 634 617 79 46 264 127 343 149 133
39 526 373 770 654 410 474 653 979 741 1538 19 124 22 180 23 485 0 285 -3
365 -18 460 -74 473 -240 885 -491 1220 -89 119 -272 308 -391 405 -142 115
-306 219 -485 308 -91 44 -167 82 -169 83 -1 2 2 40 8 86 35 270 34 681 -4
988 -118 947 -532 1685 -1215 2162 -376 263 -991 473 -1477 504 -64 4 -103 11
-103 18 0 6 0 1425 0 3154 0 1728 -3 3142 -6 3142 -10 0 -86 -42 -1364 -763
-712 -402 -1330 -750 -1374 -774 -43 -24 -254 -144 -470 -265 -215 -122 -420
-238 -456 -258 -36 -20 -157 -89 -270 -152 -113 -64 -380 -215 -595 -335 -214
-121 -516 -291 -670 -378 -154 -87 -350 -197 -435 -245 -85 -48 -369 -208
-630 -355 -261 -148 -630 -356 -820 -462 -190 -107 -359 -203 -375 -213 l-30
-19 -80 46 c-534 303 -1269 630 -1960 873 -1308 460 -2852 781 -4350 905 -409
34 -577 43 -865 50 -135 4 -337 10 -450 15 -1557 70 -3103 -239 -4569 -914
l-144 -66 -206 117 c-113 64 -368 208 -566 321 -198 112 -445 252 -550 312
-104 59 -273 155 -375 212 -257 146 -1658 940 -2280 1293 -985 558 -2257 1279
-2505 1420 -338 192 -315 181 -316 153z m1150 -2059 c185 -95 395 -202 466
-239 72 -37 780 -401 1575 -808 795 -407 1573 -806 1730 -886 157 -80 405
-208 553 -283 l267 -137 -32 -20 c-128 -79 -433 -283 -583 -391 -597 -428
-1095 -852 -1625 -1384 -435 -437 -824 -885 -1098 -1264 l-85 -118 -41 48
c-80 95 -273 287 -386 382 -229 192 -482 357 -750 488 -96 48 -187 95 -202
105 -36 25 -270 141 -330 163 -27 10 -48 23 -48 29 0 6 4 81 9 166 5 85 12
214 16 285 3 72 8 162 10 200 5 82 11 187 25 455 5 107 12 236 15 285 3 50 14
261 25 470 28 548 30 572 35 655 3 41 7 129 10 195 5 112 8 158 20 375 3 47 7
139 10 205 3 66 8 145 10 175 2 30 7 118 10 195 3 77 8 165 10 195 2 30 9 152
15 270 6 118 12 240 15 270 2 30 4 63 4 73 1 9 4 17 7 17 4 0 158 -77 343
-171z m24229 -4935 c153 18 152 18 27 -27 -170 -62 -252 -96 -399 -166 l-130
-62 -30 29 c-48 46 -222 174 -332 244 -763 492 -1565 644 -2239 423 -182 -59
-326 -126 -493 -227 l-64 -39 -21 28 c-12 15 -75 90 -141 166 -356 415 -855
877 -1299 1207 -48 35 -87 67 -87 71 0 3 154 89 343 189 188 101 365 196 392
211 50 27 226 121 1350 721 319 171 636 340 705 378 162 87 382 205 490 262
252 134 990 528 1080 578 58 31 157 84 220 118 63 33 216 115 340 181 l225
120 3 -2206 2 -2205 58 6z m-6577 -3302 c-7 -2 -18 1 -23 6 -8 8 -4 9 13 5 13
-4 18 -8 10 -11z m-14028 -27 c-48 -41 -67 -89 -60 -151 l4 -43 -78 -26 c-54
-18 -86 -35 -103 -55 l-24 -29 -42 56 c-24 30 -74 92 -112 136 -38 44 -67 81
-66 82 2 1 50 5 108 8 103 6 267 27 345 46 67 15 70 12 28 -24z"/>
<path d="M8105 19495 c-148 -32 -276 -104 -391 -219 -140 -141 -223 -307 -247
-496 -9 -72 -8 -105 5 -184 23 -138 68 -228 161 -321 113 -113 233 -160 402
-159 358 3 689 295 761 672 86 448 -260 802 -691 707z"/>
<path d="M31590 19294 c-341 -66 -528 -400 -434 -774 40 -159 160 -347 285
-447 374 -297 842 -190 972 222 18 57 22 93 21 195 0 151 -15 215 -84 355
-105 213 -272 359 -485 425 -68 21 -221 34 -275 24z"/>
<path d="M4756 19235 c-201 -56 -356 -227 -402 -445 -19 -90 -14 -263 11 -355
24 -90 107 -252 165 -323 103 -126 261 -230 406 -266 79 -20 223 -20 299 -1
131 35 266 138 332 255 63 111 78 178 78 345 -1 143 -2 154 -34 247 -92 267
-295 469 -542 538 -86 23 -236 26 -313 5z"/>
<path d="M34774 19020 c-454 -119 -715 -707 -498 -1121 103 -195 320 -308 536
-279 250 35 455 194 577 451 57 118 73 185 78 329 8 214 -43 358 -171 486
-140 139 -323 186 -522 134z"/>
<path d="M6705 17084 c-118 -14 -319 -55 -400 -81 -123 -39 -249 -124 -331
-224 -57 -69 -125 -201 -157 -305 -30 -95 -57 -264 -57 -357 l0 -65 -46 -27
c-210 -123 -417 -522 -554 -1067 -51 -203 -55 -240 -41 -371 41 -375 259 -677
605 -837 141 -65 414 -125 716 -156 221 -22 654 -15 875 15 294 40 580 106
846 197 291 99 433 173 567 298 234 218 358 561 338 931 -13 243 -74 395 -235
584 -97 113 -333 289 -498 371 l-70 35 -6 75 c-17 199 -162 441 -435 721 -130
134 -135 138 -220 172 -240 96 -579 130 -897 91z"/>
<path d="M32740 16884 c-176 -20 -318 -54 -441 -104 -85 -35 -140 -85 -296
-265 -216 -250 -333 -473 -333 -636 l0 -57 -77 -43 c-349 -190 -592 -443 -672
-699 -42 -132 -53 -365 -26 -540 40 -267 142 -477 312 -641 131 -126 220 -179
463 -272 325 -125 719 -215 1080 -248 179 -16 528 -13 704 6 262 28 547 92
671 151 279 133 484 377 562 670 22 85 26 120 27 249 0 145 -1 155 -43 315
-117 452 -260 774 -418 940 -36 38 -84 82 -108 97 -50 31 -55 43 -55 133 0
121 -37 298 -90 430 -77 194 -249 359 -443 424 -58 19 -197 50 -327 71 -90 15
-415 28 -490 19z"/>
<path d="M10190 16815 c-342 -68 -617 -361 -661 -702 -38 -297 142 -562 427
-629 93 -22 262 -14 359 16 275 86 500 318 571 590 21 80 23 235 5 310 -74
305 -371 481 -701 415z"/>
<path d="M29530 16605 c-165 -37 -307 -146 -373 -287 -47 -98 -61 -165 -60
-278 2 -325 236 -639 558 -747 71 -24 95 -28 215 -28 116 0 145 3 203 23 102
36 201 112 262 202 89 132 120 278 92 444 -54 317 -290 576 -602 662 -78 22
-220 26 -295 9z"/>
<path d="M3290 16274 c-153 -40 -296 -155 -359 -287 -175 -367 58 -851 485
-1006 257 -94 508 -50 674 118 112 113 160 234 160 407 0 344 -270 676 -624
764 -95 24 -254 26 -336 4z"/>
<path d="M36170 16059 c-264 -69 -481 -272 -573 -537 -25 -72 -31 -107 -35
-202 -7 -190 40 -322 158 -440 306 -307 883 -147 1100 304 99 208 105 420 15
603 -113 229 -393 344 -665 272z"/>
<path d="M20175 15409 c-581 -41 -1076 -219 -1151 -415 -16 -42 -16 -46 2 -87
94 -209 814 -865 1205 -1098 l87 -51 4 -236 4 -236 -45 -40 c-25 -23 -154
-150 -286 -282 -212 -214 -254 -251 -359 -320 -141 -91 -382 -218 -514 -269
-126 -49 -305 -93 -437 -109 -224 -28 -561 -3 -800 58 -451 115 -877 363
-1077 626 -106 139 -181 337 -198 523 -5 52 -15 99 -25 113 -24 36 -76 56
-112 43 -30 -10 -87 -77 -117 -136 -23 -45 -46 -149 -46 -208 0 -71 34 -203
75 -292 36 -77 119 -208 162 -254 l24 -26 -17 -59 c-14 -49 -17 -99 -17 -289
0 -332 31 -524 122 -756 46 -117 126 -227 185 -256 76 -36 155 13 257 157 81
117 131 153 199 147 65 -5 95 -30 132 -105 l33 -67 -3 -510 c-7 -951 25 -1178
189 -1330 103 -95 232 -122 337 -69 134 67 252 296 304 589 22 125 29 390 19
750 -5 182 8 242 68 305 52 54 100 56 163 5 110 -88 113 -90 212 -90 81 0 98
3 149 29 107 55 180 164 213 317 13 60 15 114 11 281 l-6 206 42 8 c23 3 95
22 159 40 416 119 807 338 1090 613 l98 94 98 -94 c317 -305 753 -537 1209
-645 479 -113 962 -109 1421 11 774 203 1421 753 1467 1246 9 93 -6 171 -46
254 -56 113 -113 156 -174 131 -50 -21 -66 -54 -77 -159 -19 -188 -86 -369
-188 -508 -204 -275 -657 -535 -1120 -643 -347 -81 -734 -81 -1020 0 -246 70
-561 227 -770 381 -41 31 -185 167 -320 303 -135 135 -262 259 -283 275 l-38
28 6 71 c10 124 14 198 14 292 l1 90 38 18 c59 28 227 141 354 238 192 146
401 331 594 523 190 189 286 302 318 372 18 41 18 45 2 87 -47 123 -266 246
-581 326 -335 85 -806 119 -1240 89z"/>
<path d="M9230 3565 l0 -2265 810 0 810 0 2 1047 3 1048 149 -990 c81 -545
153 -1016 158 -1048 l10 -57 647 0 646 0 153 1028 c84 565 157 1038 162 1052
5 14 9 -432 9 -1027 l1 -1053 805 0 805 0 0 2265 0 2265 -968 0 -967 0 -319
-1277 c-175 -703 -322 -1283 -325 -1290 -4 -7 -148 554 -320 1245 -173 691
-318 1272 -323 1290 l-9 32 -969 0 -970 0 0 -2265z"/>
<path d="M14730 3565 l0 -2265 810 0 810 0 0 2265 0 2265 -810 0 -810 0 0
-2265z"/>
<path d="M17321 3578 c-354 -1239 -646 -2259 -648 -2266 -4 -9 161 -12 806
-12 l810 0 10 38 c5 20 19 75 31 122 12 47 26 102 31 123 l10 37 564 0 564 0
10 -37 c5 -21 23 -91 40 -156 16 -65 31 -120 33 -123 3 -2 367 -3 810 -2 l805
3 -646 2260 -646 2260 -970 3 -971 2 -643 -2252z m1733 -176 c64 -254 116
-466 116 -472 0 -6 -82 -10 -235 -10 -151 0 -235 4 -235 10 0 17 232 941 236
938 1 -2 55 -211 118 -466z"/>
<path d="M23065 5820 c-145 -10 -285 -32 -417 -66 -756 -191 -1409 -843 -1603
-1598 -146 -570 -72 -1201 197 -1681 317 -565 872 -987 1470 -1118 196 -43
281 -52 523 -52 367 0 624 51 922 184 395 175 780 514 1020 902 334 537 414
1266 208 1894 -104 319 -270 586 -525 848 -312 322 -645 520 -1040 621 -226
57 -509 82 -755 66z m360 -1640 c99 -31 168 -73 255 -156 128 -122 187 -251
197 -424 13 -234 -94 -447 -290 -578 -112 -74 -194 -97 -352 -97 -111 0 -141
4 -204 24 -185 61 -351 228 -412 412 -33 104 -35 291 -2 394 59 186 222 356
397 415 34 11 82 25 107 30 70 15 225 4 304 -20z"/>
<path d="M25272 5818 c3 -7 324 -1027 714 -2265 l709 -2253 826 0 826 0 59
183 c32 100 84 258 114 351 l56 169 83 -264 c45 -145 95 -303 109 -351 l27
-88 827 0 827 0 29 93 c40 125 1414 4409 1419 4425 4 9 -161 12 -805 12 l-810
0 -322 -966 c-177 -531 -323 -964 -325 -962 -3 3 -495 1915 -495 1923 0 3
-219 4 -487 3 l-487 -3 -311 -950 c-171 -522 -313 -957 -316 -965 -3 -8 -151
420 -328 953 l-323 967 -810 0 c-644 0 -809 -3 -806 -12z"/>
</g>
</svg>
